<svg width="39" height="39" viewBox="0 0 39 39" fill="none" xmlns="http://www.w3.org/2000/svg">
<path d="M27.6389 34.1167L11.3889 34.1321C7.81388 34.1354 4.88645 31.2136 4.88238 27.6386L4.86695 11.3886C4.8637 7.81364 7.78545 4.8862 11.3604 4.88214L27.6104 4.8667C31.1854 4.86345 34.1129 7.7852 34.1169 11.3602L34.1324 27.6102C34.1364 31.186 31.2139 34.1135 27.6389 34.1167Z" fill="#FEFEFD"/>
<path d="M19.5 25.1875C16.3646 25.1875 13.8125 22.6362 13.8125 19.5C13.8125 16.3637 16.3646 13.8125 19.5 13.8125C22.6354 13.8125 25.1875 16.3637 25.1875 19.5C25.1875 22.6362 22.6354 25.1875 19.5 25.1875ZM19.5 15.4375C17.2599 15.4375 15.4375 17.2599 15.4375 19.5C15.4375 21.7401 17.2599 23.5625 19.5 23.5625C21.7401 23.5625 23.5625 21.7401 23.5625 19.5C23.5625 17.2599 21.7401 15.4375 19.5 15.4375Z" fill="#24211E"/>
<path d="M25.5938 14.625C26.2668 14.625 26.8125 14.0793 26.8125 13.4062C26.8125 12.7332 26.2668 12.1875 25.5938 12.1875C24.9207 12.1875 24.375 12.7332 24.375 13.4062C24.375 14.0793 24.9207 14.625 25.5938 14.625Z" fill="#24211E"/>
<path d="M24.375 30.0625H14.625C11.4896 30.0625 8.9375 27.5112 8.9375 24.375V14.625C8.9375 11.4887 11.4896 8.9375 14.625 8.9375H24.375C27.5104 8.9375 30.0625 11.4887 30.0625 14.625V24.375C30.0625 27.5112 27.5104 30.0625 24.375 30.0625ZM14.625 10.5625C12.3849 10.5625 10.5625 12.3849 10.5625 14.625V24.375C10.5625 26.6151 12.3849 28.4375 14.625 28.4375H24.375C26.6151 28.4375 28.4375 26.6151 28.4375 24.375V14.625C28.4375 12.3849 26.6151 10.5625 24.375 10.5625H14.625Z" fill="#24211E"/>
</svg>
